<svg aria-hidden="true" style="width:0;height:0;position:absolute;overflow:hidden" xmlns="http://www.w3.org/2000/svg"><defs><symbol id="icon-or-heart" viewBox="0 0 14 13"><path d="m7 12.88-.98-.98C2.38 8.68 0 6.51 0 3.85 0 1.68 1.68 0 3.85 0 5.04 0 6.23.56 7 1.47 7.77.56 8.96 0 10.15 0 12.32 0 14 1.68 14 3.85c0 2.66-2.38 4.83-6.02 8.05l-.98.98Z" fill="#FF6B08"/></symbol><symbol id="icon-film" viewBox="0 0 32 32"><path fill="none" stroke="#fff" style="stroke:var(--color2,#fff)" stroke-linejoin="round" stroke-linecap="round" stroke-width="2.667" d="M26.427 2.667H5.574a2.907 2.907 0 0 0-2.907 2.907v20.853a2.907 2.907 0 0 0 2.907 2.907h20.853a2.907 2.907 0 0 0 2.907-2.907V5.574a2.907 2.907 0 0 0-2.907-2.907zM9.333 2.667v26.667M22.667 2.667v26.667M2.667 16h26.667M2.667 9.333h6.667M2.667 22.667h6.667M22.667 22.667h6.667M22.667 9.333h6.667"/></symbol><symbol id="icon-search" viewBox="0 0 32 32"><path fill="none" stroke="#fff" style="stroke:var(--color2,#fff)" stroke-linejoin="round" stroke-linecap="round" stroke-width="2.667" d="M14.667 25.333c5.891 0 10.667-4.776 10.667-10.667S20.558 3.999 14.667 3.999 4 8.775 4 14.666s4.776 10.667 10.667 10.667zM28 28.001l-5.8-5.8"/></symbol><symbol id="icon-git" viewBox="0 0 32 32"><path d="M31.395 14.573 17.423.602a2.065 2.065 0 0 0-2.917 0l-2.895 2.9 3.68 3.68a2.452 2.452 0 0 1 3.103 3.121l3.544 3.547a2.451 2.451 0 0 1 2.533 4.052 2.449 2.449 0 0 1-3.467 0 2.46 2.46 0 0 1-.539-2.661l-3.319-3.301v8.7c.235.115.456.271.651.464a2.463 2.463 0 0 1 0 3.467 2.46 2.46 0 0 1-3.479 0 2.445 2.445 0 0 1 0-3.464c.243-.24.516-.421.807-.541v-8.785a2.433 2.433 0 0 1-.8-.535 2.445 2.445 0 0 1-.528-2.679l-3.616-3.633L.6 14.509c-.8.807-.8 2.112 0 2.919l13.973 13.969a2.061 2.061 0 0 0 2.915 0L31.395 17.49a2.059 2.059 0 0 0 0-2.916z"/></symbol><symbol id="icon-telegram" viewBox="0 0 32 32"><path d="M15.925 0C7.121.042 0 7.19 0 16c0 8.837 7.163 16 16 16s16-7.163 16-16S24.837 0 16 0h-.076.002zm6.616 9.632c.133-.003.428.031.62.187a.673.673 0 0 1 .228.43v.003c.021.124.048.408.027.629-.24 2.531-1.283 8.669-1.813 11.503-.224 1.2-.665 1.601-1.093 1.64-.928.087-1.633-.613-2.533-1.203-1.408-.924-2.204-1.499-3.571-2.4-1.58-1.04-.556-1.613.344-2.547.236-.245 4.329-3.969 4.409-4.307.009-.043.019-.2-.075-.283s-.232-.055-.332-.032c-.141.032-2.391 1.52-6.748 4.46-.64.44-1.217.653-1.736.64-.571-.011-1.669-.321-2.487-.587-1.003-.327-1.799-.499-1.729-1.052.036-.288.433-.583 1.191-.884 4.664-2.032 7.773-3.372 9.331-4.019 4.443-1.848 5.367-2.169 5.968-2.18z"/></symbol><symbol id="close" viewBox="0 0 32 32"><path d="M32 3.223 28.777 0 16 12.777 3.223 0 0 3.223 12.777 16 0 28.777 3.223 32 16 19.223 28.777 32 32 28.777 19.223 16 32 3.223z"/></symbol><symbol id="icon-video-player" viewBox="0 0 32 32"><path d="M25.408 1.809H1.271a1.27 1.27 0 0 0-1.27 1.27v19.878c0 .702.569 1.27 1.27 1.27h18.037l-1.396-1.619h-3.334v-2.033h1.747l-.013-.015c-.446-.509-.741-1.034-.882-1.54H3.05V7.015h20.58V19.02h-2.761c.419.445.858.896 1.226 1.261.258-.242.562-.509.904-.777 1.162-.912 2.293-1.471 3.36-1.658.107-.019.214-.033.321-.044V3.079a1.27 1.27 0 0 0-1.271-1.27zM8.861 20.577H12.1v2.033H8.861v-2.033zm-5.717 0h3.24v2.033h-3.24v-2.033zm3.24-15.116h-3.24V3.428h3.24v2.033zm5.716 0H8.861V3.428H12.1v2.033zm5.717 0h-3.239V3.428h3.239v2.033zm5.717 0h-3.239V3.428h3.239v2.033z"/><path d="M31.908 24.331c-.316-1.701-1.398-3.273-2.015-4.059-.837-1.066-1.9-1.495-3.158-1.273-.899.158-1.875.648-2.903 1.454a13.086 13.086 0 0 0-1.517 1.406c-.609-.525-2.311-2.278-3.146-3.267-.419-.496-1.501-1.552-2.309-.823-.869.845.404 2.225.437 2.265l5.106 6.251a.369.369 0 0 1-.07.072c-.49.385-1.919-.322-2.496-.704-.527-.349-1.415-.346-1.863.006a.688.688 0 0 0-.28.539c-.001.298.193.606.578.914l.023.02c.569.488 2.113 1.702 4.151 2.449 1.307.479 2.579.677 3.784.587 1.494-.111 2.886-.666 4.137-1.648 1.342-1.054 1.86-2.464 1.54-4.19zM12.084 8.75a.655.655 0 0 0-1.078.503v6.924a.657.657 0 0 0 1.079.504l4.131-3.462a.657.657 0 0 0 0-1.006l-4.131-3.462z"/></symbol><symbol id="icon-play" viewBox="0 0 32 32"><path d="M30.662 5.003C26.174 4.358 21.214 4 16 4S5.826 4.358 1.338 5.003C.478 8.369 0 12.089 0 16s.477 7.63 1.338 10.997C5.827 27.642 10.786 28 16 28s10.174-.358 14.662-1.003C31.522 23.631 32 19.911 32 16s-.477-7.63-1.338-10.997zM12 22V10l10 6-10 6z"/></symbol></defs></svg>