<svg aria-hidden="true" style="position: absolute; width: 0; height: 0; overflow: hidden;" version="1.1" xmlns="http://www.w3.org/2000/svg" xmlns:xlink="http://www.w3.org/1999/xlink">
<defs>
<symbol id="icon-or-heart" viewBox="0 0 14 13">
<path d="M7 12.88L6.02 11.9C2.38 8.68 0 6.51 0 3.85C0 1.68 1.68 0 3.85 0C5.04 0 6.23 0.56 7 1.47C7.77 0.56 8.96 0 10.15 0C12.32 0 14 1.68 14 3.85C14 6.51 11.62 8.68 7.98 11.9L7 12.88Z" fill="#FF6B08"/></path>
</symbol>

<symbol id="icon-film" viewBox="0 0 32 32">
<path fill="none" stroke="#fff" style="stroke: var(--color2, #fff)" stroke-linejoin="round" stroke-linecap="round" stroke-miterlimit="4" stroke-width="2.6667" d="M26.427 2.667h-20.853c-1.605 0-2.907 1.301-2.907 2.907v20.853c0 1.605 1.301 2.907 2.907 2.907h20.853c1.605 0 2.907-1.301 2.907-2.907v-20.853c0-1.605-1.301-2.907-2.907-2.907z"></path>
<path fill="none" stroke="#fff" style="stroke: var(--color2, #fff)" stroke-linejoin="round" stroke-linecap="round" stroke-miterlimit="4" stroke-width="2.6667" d="M9.333 2.667v26.667"></path>
<path fill="none" stroke="#fff" style="stroke: var(--color2, #fff)" stroke-linejoin="round" stroke-linecap="round" stroke-miterlimit="4" stroke-width="2.6667" d="M22.667 2.667v26.667"></path>
<path fill="none" stroke="#fff" style="stroke: var(--color2, #fff)" stroke-linejoin="round" stroke-linecap="round" stroke-miterlimit="4" stroke-width="2.6667" d="M2.667 16h26.667"></path>
<path fill="none" stroke="#fff" style="stroke: var(--color2, #fff)" stroke-linejoin="round" stroke-linecap="round" stroke-miterlimit="4" stroke-width="2.6667" d="M2.667 9.333h6.667"></path>
<path fill="none" stroke="#fff" style="stroke: var(--color2, #fff)" stroke-linejoin="round" stroke-linecap="round" stroke-miterlimit="4" stroke-width="2.6667" d="M2.667 22.667h6.667"></path>
<path fill="none" stroke="#fff" style="stroke: var(--color2, #fff)" stroke-linejoin="round" stroke-linecap="round" stroke-miterlimit="4" stroke-width="2.6667" d="M22.667 22.667h6.667"></path>
<path fill="none" stroke="#fff" style="stroke: var(--color2, #fff)" stroke-linejoin="round" stroke-linecap="round" stroke-miterlimit="4" stroke-width="2.6667" d="M22.667 9.333h6.667"></path>
</symbol>
<symbol id="icon-search" viewBox="0 0 32 32">
<path fill="none" stroke="#fff" style="stroke: var(--color2, #fff)" stroke-linejoin="round" stroke-linecap="round" stroke-miterlimit="4" stroke-width="2.6667" d="M14.667 25.333c5.891 0 10.667-4.776 10.667-10.667s-4.776-10.667-10.667-10.667c-5.891 0-10.667 4.776-10.667 10.667s4.776 10.667 10.667 10.667z"></path>
<path fill="none" stroke="#fff" style="stroke: var(--color2, #fff)" stroke-linejoin="round" stroke-linecap="round" stroke-miterlimit="4" stroke-width="2.6667" d="M28 28.001l-5.8-5.8"></path>
</symbol>
<symbol id="icon-git" viewBox="0 0 32 32">
<path d="M31.395 14.573l-13.972-13.971c-0.805-0.804-2.109-0.804-2.917 0l-2.895 2.9 3.68 3.68c0.86-0.287 1.839-0.093 2.519 0.588 0.688 0.687 0.877 1.677 0.584 2.533l3.544 3.547c0.86-0.297 1.849-0.104 2.533 0.58 0.961 0.96 0.961 2.512 0 3.472-0.959 0.959-2.508 0.959-3.467 0-0.719-0.721-0.899-1.783-0.539-2.661l-3.319-3.301v8.7c0.235 0.115 0.456 0.271 0.651 0.464 0.951 0.961 0.951 2.511 0 3.467-0.959 0.961-2.519 0.961-3.479 0-0.959-0.959-0.959-2.505 0-3.464 0.243-0.24 0.516-0.421 0.807-0.541v-8.785c-0.289-0.121-0.565-0.296-0.8-0.535-0.727-0.727-0.901-1.789-0.528-2.679l-3.616-3.633-9.581 9.575c-0.8 0.807-0.8 2.112 0 2.919l13.973 13.969c0.805 0.805 2.109 0.805 2.915 0l13.907-13.907c0.807-0.804 0.807-2.109 0-2.916z"></path>
</symbol>
<symbol id="icon-telegram" viewBox="0 0 32 32">
<path d="M15.925 0c-8.804 0.042-15.925 7.19-15.925 16 0 0 0 0 0 0v0c0 8.837 7.163 16 16 16v0c8.837 0 16-7.163 16-16v0c0-8.837-7.163-16-16-16v0c-0.011-0-0.024-0-0.037-0s-0.026 0-0.039 0h0.002zM22.541 9.632c0.133-0.003 0.428 0.031 0.62 0.187 0.124 0.108 0.208 0.259 0.228 0.43l0 0.003c0.021 0.124 0.048 0.408 0.027 0.629-0.24 2.531-1.283 8.669-1.813 11.503-0.224 1.2-0.665 1.601-1.093 1.64-0.928 0.087-1.633-0.613-2.533-1.203-1.408-0.924-2.204-1.499-3.571-2.4-1.58-1.040-0.556-1.613 0.344-2.547 0.236-0.245 4.329-3.969 4.409-4.307 0.009-0.043 0.019-0.2-0.075-0.283s-0.232-0.055-0.332-0.032c-0.141 0.032-2.391 1.52-6.748 4.46-0.64 0.44-1.217 0.653-1.736 0.64-0.571-0.011-1.669-0.321-2.487-0.587-1.003-0.327-1.799-0.499-1.729-1.052 0.036-0.288 0.433-0.583 1.191-0.884 4.664-2.032 7.773-3.372 9.331-4.019 4.443-1.848 5.367-2.169 5.968-2.18z"></path>
</symbol>
<symbol id="close" viewBox="0 0 32 32">
<path d="M32 3.223 28.777 0 16 12.777 3.223 0 0 3.223 12.777 16 0 28.777 3.223 32 16 19.223 28.777 32 32 28.777 19.223 16 32 3.223z"/></symbol>
<symbol id="icon-video-player" viewBox="0 0 32 32">
<path d="M25.408 1.809h-24.137c-0.702 0-1.27 0.569-1.27 1.27v19.878c0 0.702 0.569 1.27 1.27 1.27h18.037l-1.396-1.619h-3.334v-2.033h1.747l-0.013-0.015c-0.446-0.509-0.741-1.034-0.882-1.54h-12.38v-12.005h20.58v12.005h-2.761c0.419 0.445 0.858 0.896 1.226 1.261 0.258-0.242 0.562-0.509 0.904-0.777 1.162-0.912 2.293-1.471 3.36-1.658 0.107-0.019 0.214-0.033 0.321-0.044v-14.723c-0-0.702-0.569-1.27-1.271-1.27zM8.861 20.577h3.239v2.033h-3.239v-2.033zM3.144 20.577h3.24v2.033h-3.24v-2.033zM6.384 5.461h-3.24v-2.033h3.24v2.033zM12.1 5.461h-3.239v-2.033h3.239v2.033zM17.817 5.461h-3.239v-2.033h3.239v2.033zM23.534 5.461h-3.239v-2.033h3.239v2.033z"></path>
<path d="M31.908 24.331c-0.316-1.701-1.398-3.273-2.015-4.059-0.837-1.066-1.9-1.495-3.158-1.273-0.899 0.158-1.875 0.648-2.903 1.454-0.726 0.57-1.274 1.141-1.517 1.406-0.609-0.525-2.311-2.278-3.146-3.267-0.419-0.496-1.501-1.552-2.309-0.823-0.869 0.845 0.404 2.225 0.437 2.265l5.106 6.251c-0.021 0.028-0.044 0.052-0.070 0.072-0.49 0.385-1.919-0.322-2.496-0.704-0.527-0.349-1.415-0.346-1.863 0.006-0.179 0.141-0.279 0.332-0.28 0.539-0.001 0.298 0.193 0.606 0.578 0.914 0.004 0.003 0.012 0.010 0.023 0.020 0.569 0.488 2.113 1.702 4.151 2.449 1.307 0.479 2.579 0.677 3.784 0.587 1.494-0.111 2.886-0.666 4.137-1.648 1.342-1.054 1.86-2.464 1.54-4.19z"></path>
<path d="M12.084 8.75c-0.195-0.164-0.468-0.2-0.699-0.092s-0.379 0.34-0.379 0.595v6.924c0 0.255 0.148 0.487 0.379 0.595 0.089 0.041 0.183 0.062 0.278 0.062 0.151 0 0.301-0.052 0.422-0.153l4.131-3.462c0.149-0.125 0.235-0.309 0.235-0.503s-0.086-0.378-0.235-0.503l-4.131-3.462z"></path>
</symbol>
<symbol id="icon-play" viewBox="0 0 32 32">
<path d="M30.662 5.003c-4.488-0.645-9.448-1.003-14.662-1.003s-10.174 0.358-14.662 1.003c-0.86 3.366-1.338 7.086-1.338 10.997s0.477 7.63 1.338 10.997c4.489 0.645 9.448 1.003 14.662 1.003s10.174-0.358 14.662-1.003c0.86-3.366 1.338-7.086 1.338-10.997s-0.477-7.63-1.338-10.997zM12 22v-12l10 6-10 6z"></path>
</symbol>
</defs>
</svg>