<svg xmlns="http://www.w3.org/2000/svg" viewBox="0 0 612 612">
    <path
        d="M331.742 164.112c-7.172-7.115-16.906-11.112-27.1-11.112-10.174 0-19.909 3.997-27.1 11.112l-113.469 114.75c-14.975 14.822-14.975 38.842 0 53.666 14.975 14.841 39.226 14.841 54.181 0l49.496-50.356v138.962c0 20.923 16.964 37.867 37.868 37.867h.765c20.923 0 37.867-16.944 37.867-37.867V287.965l4.973.803 43.013 42.61c13.56 13.426 35.267 16.696 50.796 5.604 19.718-14.096 21.344-41.482 4.877-57.796L331.742 164.112zM306 0C137.012 0 0 136.992 0 306s137.012 306 306 306c169.008 0 306-136.992 306-306S475.008 0 306 0zm0 535.5C179.45 535.5 76.5 432.55 76.5 306S179.45 76.5 306 76.5 535.5 179.45 535.5 306 432.55 535.5 306 535.5z"
        fill="#ff6b08" />
</svg>
